<?xml version="1.0" standalone="no"?>
<!DOCTYPE svg PUBLIC "-//W3C//DTD SVG 20010904//EN"
 "http://www.w3.org/TR/2001/REC-SVG-20010904/DTD/svg10.dtd">
<svg version="1.0" xmlns="http://www.w3.org/2000/svg"
 width="1180.000000pt" height="600.000000pt" viewBox="0 0 1180.000000 600.000000"
 preserveAspectRatio="xMidYMid meet">

<g transform="translate(0.000000,600.000000) scale(0.100000,-0.100000)"
fill="#000000" stroke="none">
<path d="M2661 5310 c-107 -39 -185 -128 -221 -254 -32 -113 -36 -116 -135
-116 -74 0 -84 -2 -90 -20 -11 -34 -63 -70 -102 -70 -26 0 -43 8 -67 33 l-33
32 -69 -16 c-64 -14 -70 -18 -80 -49 -17 -50 -57 -80 -108 -80 -28 0 -49 7
-63 19 -20 19 -21 19 -87 -20 l-66 -40 27 -40 c32 -45 23 -45 153 10 184 77
316 101 565 101 255 0 407 -28 600 -111 53 -23 97 -40 99 -38 1 2 15 20 30 40
l27 37 -63 40 c-63 39 -63 39 -87 21 -14 -11 -40 -19 -63 -19 -32 0 -47 7 -74
34 -19 19 -34 43 -34 54 0 22 -10 27 -77 37 -38 6 -47 3 -80 -24 -42 -34 -64
-39 -83 -16 -24 29 0 76 50 102 68 34 147 47 177 28 13 -9 23 -22 23 -30 0
-29 61 -84 118 -107 50 -19 75 -22 197 -22 133 0 145 1 238 33 74 26 95 37 87
46 -21 25 -143 77 -230 98 l-89 22 57 30 c68 35 142 106 171 163 12 23 21 43
21 46 0 2 -33 10 -72 16 -147 25 -290 -20 -431 -136 -38 -30 -71 -54 -73 -52
-2 3 5 30 16 61 12 32 20 82 20 117 0 56 -2 60 -22 60 -13 -1 -47 -10 -77 -20z
m14 -156 c-28 -58 -89 -116 -137 -133 l-31 -11 7 41 c4 23 13 53 20 68 24 45
87 111 125 130 l36 19 3 -30 c2 -18 -7 -52 -23 -84z m491 66 c34 0 30 -15 -19
-64 -62 -61 -144 -98 -225 -100 -38 0 -66 3 -69 10 -7 19 67 93 120 119 54 26
132 46 155 39 8 -2 25 -4 38 -4z m-96 -250 c57 -13 150 -50 150 -60 0 -4 -10
-11 -22 -14 -38 -11 -222 -19 -260 -12 -43 8 -133 77 -115 88 17 11 194 9 247
-2z"/>
<path d="M2145 4740 c-157 -14 -285 -49 -437 -120 -64 -30 -67 -32 -56 -56 6
-14 16 -23 22 -20 6 2 52 23 102 45 311 140 734 133 1067 -16 l58 -26 25 25
25 25 -80 36 c-90 41 -223 82 -315 97 -91 14 -308 20 -411 10z"/>
<path d="M2135 4609 c-44 -5 -118 -20 -165 -33 -89 -26 -240 -90 -240 -103 0
-4 12 -19 26 -34 l26 -27 -41 -21 c-35 -19 -165 -58 -243 -75 -16 -4 -28 -11
-28 -18 0 -8 36 -9 133 -3 72 5 148 10 167 11 19 1 43 5 53 8 9 3 24 8 32 11
8 2 65 -6 127 -18 87 -16 149 -21 268 -21 178 0 278 20 406 79 87 40 194 103
194 114 0 13 -152 79 -232 101 -137 37 -308 47 -483 29z m395 -76 c30 -8 59
-19 65 -24 14 -14 -62 -86 -120 -114 -64 -31 -145 -41 -219 -25 -64 13 -63 18
4 44 60 23 105 59 136 107 27 43 21 43 134 12z m-480 -10 c0 -22 -80 -97 -131
-123 -22 -12 -50 -19 -62 -17 -19 3 -14 11 44 68 56 54 97 79 142 88 4 0 7 -7
7 -16z m39 -92 c10 -7 -5 -19 -59 -46 -92 -46 -117 -34 -39 19 55 37 74 42 98
27z"/>
<path d="M1132 3066 c3 -1155 4 -1202 22 -1236 77 -143 218 -220 516 -280 178
-36 270 -65 373 -116 86 -44 147 -85 204 -137 l41 -38 64 48 c144 109 276 161
523 203 93 17 194 37 225 46 164 47 303 151 362 272 l33 67 3 1188 2 1188
-1185 -2 -1185 -1 2 -1202z m2283 992 c3 -35 5 -520 3 -1078 l-3 -1015 -32
-68 c-80 -168 -260 -272 -568 -327 -66 -11 -144 -28 -174 -36 -57 -16 -248
-108 -312 -151 l-37 -25 -64 50 c-134 105 -233 146 -463 192 -327 66 -470 133
-527 247 l-23 48 -3 1100 c-1 605 0 1105 2 1112 4 10 221 13 1100 13 l1094 0
7 -62z"/>
<path d="M1665 3965 c-28 -29 -58 -57 -68 -62 -18 -9 -18 -11 2 -44 12 -19 21
-37 21 -40 0 -4 -15 -14 -34 -23 -25 -12 -64 -16 -150 -16 l-116 0 0 -30 0
-30 132 0 c108 0 135 -3 150 -16 17 -16 17 -18 0 -30 -12 -10 -56 -13 -149
-14 l-133 0 0 -30 0 -30 134 0 c105 0 136 -3 146 -15 24 -29 0 -35 -141 -35
-111 0 -139 -3 -139 -14 0 -8 17 -16 46 -20 25 -3 97 -26 160 -51 133 -53 211
-65 266 -42 51 21 60 58 24 96 -26 28 -26 28 -6 46 27 24 25 49 -5 69 -30 20
-32 37 -4 62 17 15 19 25 13 54 -10 53 -6 79 18 113 l22 30 -25 16 c-13 8 -44
36 -69 62 l-46 47 -49 -53z m83 -48 c20 -21 21 -25 6 -46 -20 -27 -61 -25 -80
5 -12 18 -11 23 6 42 26 28 41 28 68 -1z"/>
<path d="M2820 3971 c-25 -26 -56 -54 -69 -62 l-25 -16 22 -30 c24 -34 28 -60
18 -113 -6 -29 -4 -39 13 -54 28 -25 26 -42 -4 -62 -30 -20 -32 -45 -5 -69
l21 -19 -26 -23 c-65 -61 5 -123 122 -109 30 3 106 27 168 51 63 25 134 48
159 51 29 4 46 12 46 20 0 11 -28 14 -139 14 -141 0 -165 6 -141 35 10 12 41
15 146 15 l134 0 0 30 0 30 -132 0 c-94 1 -138 4 -150 14 -17 12 -17 14 0 30
15 13 42 16 150 16 l132 0 0 30 0 30 -116 0 c-86 0 -125 4 -150 16 -19 9 -34
19 -34 23 0 3 9 21 21 40 20 33 20 35 2 44 -10 5 -40 33 -68 62 l-50 53 -45
-47z m80 -53 c17 -19 18 -24 6 -42 -19 -30 -60 -32 -80 -5 -15 21 -14 25 6 46
27 29 42 29 68 1z"/>
<path d="M2184 3582 l-108 -170 -100 5 c-98 5 -104 4 -193 -31 -120 -47 -165
-47 -283 -1 -60 23 -106 35 -140 35 l-50 0 0 -34 c0 -32 1 -33 48 -39 26 -3
81 -20 122 -39 66 -29 85 -33 160 -32 70 0 96 5 147 27 35 15 86 32 114 38 54
12 119 5 119 -12 0 -6 -13 -30 -29 -53 -28 -40 -34 -44 -83 -49 -29 -3 -88
-19 -130 -36 -122 -49 -146 -50 -271 -2 -68 26 -124 41 -152 41 l-45 0 0 -40
0 -40 40 0 c22 0 80 -16 130 -35 108 -42 192 -46 280 -14 100 37 140 48 140
40 0 -4 -139 -227 -310 -496 l-310 -489 0 -64 c0 -49 3 -63 13 -59 136 52 301
82 410 74 84 -5 131 -21 287 -92 107 -49 156 -64 252 -80 62 -10 155 13 306
76 78 33 177 69 219 80 146 37 324 18 516 -56 15 -6 17 0 17 61 l-1 69 -309
490 c-170 269 -307 491 -306 493 2 2 37 -11 77 -29 58 -25 92 -33 159 -36 78
-5 92 -3 165 27 56 22 103 33 158 37 l77 6 0 40 0 40 -82 -5 c-64 -4 -100 -12
-158 -37 -115 -49 -136 -49 -277 -2 -67 23 -134 41 -150 41 -23 0 -34 9 -60
53 l-32 52 27 8 c42 12 106 0 185 -35 63 -27 83 -31 162 -32 81 0 98 3 170 34
63 27 94 34 148 34 l67 1 0 38 0 37 -75 0 c-62 0 -91 -6 -165 -35 -116 -45
-168 -46 -270 -3 -68 28 -86 32 -188 33 l-114 2 -100 159 c-54 88 -103 163
-107 167 -5 5 -57 -68 -117 -161z m153 -229 c29 -9 53 -20 53 -23 0 -4 -22
-17 -50 -28 l-50 -21 0 -71 c0 -59 3 -72 18 -76 76 -24 131 -83 163 -176 12
-34 17 -38 46 -38 l33 0 0 51 c0 37 3 49 13 45 6 -2 29 -10 50 -17 46 -15 47
-24 2 -39 -23 -8 -35 -18 -35 -30 0 -14 21 -25 96 -49 111 -36 145 -57 168
-105 32 -68 11 -159 -64 -275 l-40 -61 109 0 c59 0 111 -3 115 -7 4 -5 -59
-24 -140 -43 l-147 -35 -2 -53 c-5 -153 -169 -295 -356 -309 -87 -7 -149 8
-271 63 -56 26 -122 52 -147 59 l-46 12 3 140 3 139 -88 27 c-48 14 -103 29
-120 32 l-32 6 97 86 c53 46 104 97 112 111 10 19 15 58 15 130 l0 102 33 0
32 0 0 55 c0 30 1 55 3 55 14 0 97 -33 97 -39 0 -4 -14 -12 -31 -18 -25 -10
-30 -17 -27 -39 2 -23 11 -29 50 -41 26 -7 55 -24 66 -38 22 -28 27 -25 58 35
25 49 23 149 -4 220 -12 30 -22 56 -22 58 0 2 36 2 80 0 l80 -3 0 113 c0 78 3
112 12 112 6 0 35 -8 65 -17z"/>
<path d="M2466 2837 c-3 -18 -13 -42 -21 -54 l-15 -22 -43 24 c-23 12 -54 25
-69 29 -24 6 -28 3 -28 -17 0 -20 8 -25 50 -36 29 -8 72 -30 100 -52 l49 -39
16 29 c20 39 19 92 -2 136 -21 44 -29 44 -37 2z"/>
<path d="M2160 2806 c-46 -8 -66 -16 -68 -27 -4 -21 24 -32 48 -19 10 6 31 10
47 10 48 0 73 11 73 31 0 21 -5 22 -100 5z"/>
<path d="M2095 2652 c-8 -98 -11 -106 -33 -97 -9 4 -38 16 -64 26 l-48 19 0
-26 c0 -16 10 -34 24 -45 28 -22 46 -90 46 -173 l0 -54 43 -5 c23 -4 77 -9
120 -13 l77 -6 0 80 0 80 -31 6 c-17 3 -56 6 -85 6 -58 0 -62 5 -39 49 19 38
37 151 29 189 -3 17 -12 33 -19 36 -10 3 -15 -15 -20 -72z"/>
<path d="M1735 2543 l-87 -73 111 0 c87 0 111 3 111 14 0 7 9 25 20 39 11 14
20 39 20 55 0 28 -3 30 -44 33 -42 4 -48 1 -131 -68z"/>
<path d="M2500 2568 c-1 -24 -7 -79 -15 -123 -20 -112 -21 -110 25 -84 l40 23
0 113 0 113 -25 0 c-23 0 -25 -4 -25 -42z"/>
<path d="M2580 2508 l0 -101 23 20 c16 15 31 19 59 16 34 -5 39 -2 48 22 5 14
7 37 4 49 -8 33 -50 75 -82 82 -15 3 -33 7 -39 10 -10 2 -13 -22 -13 -98z"/>
<path d="M2290 2355 c0 -36 4 -65 10 -65 19 0 110 22 110 26 0 24 -86 104
-112 104 -4 0 -8 -29 -8 -65z"/>
<path d="M1534 2019 c-72 -9 -128 -23 -206 -51 -51 -18 -56 -22 -49 -42 5 -11
10 -20 12 -20 2 1 47 15 99 32 113 36 244 53 320 42 65 -9 127 -31 275 -98
133 -60 181 -72 280 -72 99 0 147 12 280 72 177 80 247 100 346 100 91 0 222
-27 302 -61 l48 -21 8 23 c8 19 4 24 -33 40 -83 37 -206 60 -321 60 -119 1
-152 -9 -370 -106 -221 -99 -326 -91 -630 47 -136 61 -218 74 -361 55z"/>
<path d="M1505 1875 c-87 -16 -155 -36 -155 -46 0 -8 120 -52 185 -68 22 -6
88 -17 147 -26 212 -31 309 -66 498 -180 l110 -66 67 39 c108 63 220 117 324
155 91 34 140 45 358 82 91 15 191 49 191 65 0 12 -109 40 -208 52 -121 16
-201 2 -347 -58 -210 -87 -279 -106 -385 -106 -109 0 -166 15 -351 93 -188 79
-280 93 -434 64z"/>
<path d="M4180 4216 l0 -56 47 0 46 0 -19 -21 c-16 -18 -20 -40 -22 -148 -2
-69 -8 -132 -14 -138 -6 -7 -26 -13 -44 -13 l-34 0 0 -55 0 -55 68 0 c73 0
120 20 144 62 9 15 15 79 18 193 l5 170 73 3 c46 2 79 -2 88 -9 11 -9 14 -52
14 -215 l0 -204 76 0 75 0 -3 223 c-4 320 5 311 -305 315 l-213 3 0 -55z"/>
<path d="M4760 4215 l0 -55 34 0 c43 0 46 -8 46 -126 l0 -94 70 0 70 0 0 134
c0 74 -3 142 -6 151 -12 29 -60 45 -139 45 l-75 0 0 -55z"/>
<path d="M5048 4264 c-5 -4 -8 -29 -8 -55 l0 -48 38 -3 37 -3 3 -107 3 -108
69 0 70 0 0 139 c0 180 -3 185 -122 189 -45 2 -86 0 -90 -4z"/>
<path d="M5330 4216 l0 -56 96 0 c144 0 134 16 134 -225 l0 -205 75 0 75 0 -1
213 c0 319 -1 320 -230 325 l-149 4 0 -56z"/>
<path d="M5770 4217 c0 -56 0 -56 33 -59 l32 -3 3 -107 3 -108 74 0 75 0 0
134 c0 128 -1 136 -24 163 -23 26 -31 28 -110 32 l-86 3 0 -55z"/>
<path d="M6060 4252 c0 -26 52 -209 89 -314 17 -47 31 -89 31 -92 0 -3 -31 -6
-70 -6 l-70 0 0 -55 0 -55 163 0 c150 0 166 2 213 24 106 49 136 132 132 362
l-3 149 -72 3 -73 3 0 -180 c0 -111 -4 -189 -11 -204 -13 -30 -55 -55 -68 -41
-5 5 -32 95 -61 199 -28 105 -53 198 -56 208 -4 14 -17 17 -75 17 -60 0 -69
-2 -69 -18z"/>
<path d="M9446 4173 c-13 -21 -55 -87 -94 -147 l-71 -110 42 -24 c23 -13 85
-46 137 -72 264 -133 470 -321 570 -520 57 -112 134 -326 205 -562 l26 -88
195 0 c181 0 195 1 190 18 -2 9 -17 62 -31 117 -91 342 -231 679 -347 834 -96
128 -304 304 -518 438 -96 61 -261 153 -273 153 -4 0 -17 -17 -31 -37z"/>
<path d="M6238 3555 c-351 -59 -524 -260 -505 -590 9 -169 73 -277 199 -339
94 -46 163 -56 386 -56 l182 0 0 159 0 159 -62 7 c-77 8 -103 24 -118 70 -38
116 66 205 226 192 108 -8 171 -61 202 -170 8 -29 16 -116 19 -197 8 -235 -31
-359 -127 -407 -44 -23 -50 -23 -437 -23 l-393 0 2 -212 3 -213 515 0 c461 0
522 2 579 18 314 86 465 373 448 852 -4 112 -12 185 -26 242 -73 294 -253 452
-575 508 -109 19 -407 19 -518 0z"/>
<path d="M4130 3301 l0 -220 425 -3 425 -3 25 -26 c15 -14 30 -43 35 -65 5
-21 10 -267 10 -546 l0 -508 285 0 286 0 -3 643 -3 642 -24 62 c-27 74 -95
154 -155 185 -101 51 -101 52 -723 55 l-583 4 0 -220z"/>
<path d="M7420 3301 l0 -221 83 0 c127 0 121 15 125 -306 l3 -264 289 0 290 0
0 353 c0 194 -5 381 -10 416 -18 110 -62 170 -155 213 -48 22 -62 23 -337 26
l-288 3 0 -220z"/>
<path d="M8522 3501 c-69 -24 -126 -80 -155 -151 -22 -55 -22 -57 -25 -737
l-3 -683 285 0 285 0 3 560 c3 521 4 561 21 577 15 16 37 18 166 18 132 0 151
-2 170 -19 21 -19 21 -25 23 -575 l3 -556 285 0 285 0 3 605 c1 392 -1 630 -8
675 -21 137 -83 229 -188 278 -46 22 -56 22 -572 24 -490 3 -529 2 -578 -16z"/>
<path d="M4132 2353 l3 -418 283 -3 282 -2 0 420 0 420 -285 0 -285 0 2 -417z"/>
<path d="M7390 1400 l0 -490 1189 0 c853 0 1197 3 1220 11 54 19 69 107 31
183 -18 38 -270 334 -308 364 -9 6 -40 12 -69 12 -47 0 -58 -4 -93 -36 l-40
-36 0 -81 0 -80 25 27 c26 29 37 31 66 16 20 -11 159 -179 159 -193 0 -4 -135
-7 -300 -6 l-300 1 0 134 0 134 -100 0 -99 0 -3 -132 -3 -133 -167 -1 -168 -1
0 215 0 215 -177 -5 c-135 -4 -185 -9 -208 -20 -95 -50 -132 -171 -82 -268 31
-62 70 -80 175 -80 l82 0 0 -29 0 -30 -312 2 -313 2 -3 398 -2 397 -100 0
-100 0 0 -490z m830 -65 l0 -45 -53 0 c-58 0 -77 12 -77 47 0 29 25 42 83 43
l47 0 0 -45z"/>
<path d="M8171 1684 c-12 -15 -21 -37 -21 -49 0 -38 37 -75 75 -75 49 0 77 27
77 75 0 48 -28 75 -77 75 -24 0 -39 -7 -54 -26z"/>
<path d="M5146 1586 c-21 -8 -43 -19 -48 -24 -6 -6 -70 -153 -143 -328 l-133
-319 106 -3 c58 -1 111 -1 117 1 6 3 21 35 34 71 l23 67 125 -3 125 -3 25 -67
25 -68 114 0 c63 0 114 3 113 8 0 4 -60 148 -132 321 -100 238 -138 319 -158
334 -35 25 -140 33 -193 13z m117 -284 c15 -40 27 -77 27 -83 0 -5 -30 -9 -66
-9 -54 0 -65 3 -61 14 3 8 18 49 33 91 15 42 30 72 34 68 4 -4 19 -41 33 -81z"/>
<path d="M6794 1589 c-16 -5 -40 -19 -51 -31 -19 -21 -273 -614 -273 -638 0
-7 39 -10 112 -8 l113 3 25 68 25 68 124 -3 124 -3 25 -67 25 -68 114 0 c110
0 114 1 108 20 -21 66 -257 615 -271 631 -32 35 -129 49 -200 28z m114 -296
l29 -83 -68 0 -68 0 31 90 c17 50 35 87 39 83 4 -5 21 -45 37 -90z"/>
<path d="M4120 1250 l0 -340 110 0 110 0 0 135 0 135 120 0 119 0 3 -132 3
-133 108 -3 107 -3 0 341 0 340 -110 0 -110 0 0 -120 0 -120 -120 0 -120 0 0
120 0 120 -110 0 -110 0 0 -340z"/>
<path d="M5650 1250 l0 -340 110 0 110 0 0 340 0 340 -110 0 -110 0 0 -340z"/>
<path d="M6018 1574 c-15 -8 -32 -23 -38 -34 -6 -11 -10 -135 -10 -325 l0
-306 108 3 107 3 3 133 3 132 144 0 145 0 0 75 0 75 -145 0 -145 0 0 40 c0 56
16 60 226 60 l174 0 0 80 0 80 -272 0 c-221 -1 -278 -4 -300 -16z"/>
<path d="M837 1302 c-23 -26 -22 -94 1 -115 17 -15 58 -17 390 -17 l372 0 0
-50 0 -50 -390 0 c-351 0 -390 -2 -390 -16 0 -24 57 -72 98 -84 22 -6 171 -10
360 -10 l322 0 0 -65 0 -65 690 0 690 0 0 65 0 65 360 0 c392 0 395 0 439 56
44 56 56 54 -384 54 l-405 0 0 50 0 50 383 0 c353 0 385 1 399 18 26 28 30 58
14 96 -17 40 -31 46 -39 16 -5 -20 -14 -20 -534 -20 -524 0 -528 -1 -503 -20
14 -10 60 -28 102 -40 187 -51 209 -49 -517 -48 l-670 0 65 19 c36 11 81 24
100 29 19 5 51 20 70 32 l35 23 -507 3 c-496 2 -507 3 -513 22 -8 25 -17 25
-38 2z m2143 -297 l0 -45 -690 0 -690 0 0 45 0 45 690 0 690 0 0 -45z"/>
<path d="M8719 801 c-29 -23 -31 -81 -4 -111 28 -31 88 -27 114 6 28 35 26 69
-4 99 -29 30 -73 33 -106 6z"/>
<path d="M8931 803 c-56 -47 -24 -133 49 -133 30 0 43 6 60 27 39 50 3 123
-60 123 -15 0 -37 -8 -49 -17z"/>
</g>
</svg>
